<?xml version="1.0" standalone="no"?>
<!DOCTYPE svg PUBLIC "-//W3C//DTD SVG 20010904//EN"
 "http://www.w3.org/TR/2001/REC-SVG-20010904/DTD/svg10.dtd">
<svg version="1.0" xmlns="http://www.w3.org/2000/svg"
 width="200.000000pt" height="200.000000pt" viewBox="0 0 200.000000 200.000000"
 preserveAspectRatio="xMidYMid meet">
<metadata>
Created by potrace 1.15, written by Peter Selinger 2001-2017
</metadata>
<g transform="translate(0.000000,200.000000) scale(0.100000,-0.100000)"
fill="#000000" stroke="none">
<path d="M130 1700 l0 -240 40 0 40 0 0 -465 0 -465 -40 0 -40 0 0 -240 0
-240 130 0 130 0 0 240 0 240 -40 0 -40 0 0 312 c0 171 2 309 4 307 1 -2 41
-251 87 -552 l83 -548 111 3 110 3 3 703 2 702 35 0 35 0 0 240 0 240 -125 0
-125 0 0 -240 0 -240 40 0 40 0 -1 -272 c-1 -150 -3 -266 -5 -258 -5 21 -154
988 -154 1000 0 6 -60 10 -160 10 l-160 0 0 -240z"/>
<path d="M790 1700 l0 -240 40 0 40 0 0 -465 0 -465 -40 0 -40 0 0 -240 0
-240 288 2 287 3 3 413 2 412 -70 0 -70 0 0 -175 0 -175 -95 0 -95 0 0 120 0
120 55 0 c48 0 55 3 60 23 3 12 4 112 3 222 l-3 200 -57 3 -58 3 0 114 0 115
95 0 95 0 0 -165 0 -165 60 0 60 0 0 410 0 410 -280 0 -280 0 0 -240z"/>
<path d="M1502 1917 c-107 -114 -152 -651 -83 -992 25 -124 54 -186 112 -240
45 -42 52 -45 104 -45 50 0 56 -2 65 -26 11 -28 14 -143 4 -168 -9 -24 -125
-23 -146 2 -21 22 -38 86 -38 140 l0 42 -70 0 -70 0 0 -290 0 -290 65 0 65 0
0 67 0 66 33 -64 32 -64 72 -3 c91 -4 113 9 153 92 56 115 80 284 80 563 0
452 -62 611 -244 630 -44 5 -60 11 -68 27 -16 28 -15 165 1 194 11 20 19 23
64 20 45 -3 53 -7 69 -34 10 -17 21 -59 24 -92 l7 -62 63 0 64 0 0 275 0 275
-54 0 c-58 0 -65 -8 -66 -70 -1 -25 -1 -25 -17 5 -32 61 -40 65 -123 65 -67 0
-79 -3 -98 -23z"/>
</g>
</svg>
