<?xml version="1.0" standalone="no"?>
<!DOCTYPE svg PUBLIC "-//W3C//DTD SVG 20010904//EN"
 "http://www.w3.org/TR/2001/REC-SVG-20010904/DTD/svg10.dtd">
<svg version="1.0" xmlns="http://www.w3.org/2000/svg"
 width="67.000000pt" height="73.000000pt" viewBox="0 0 67.000000 73.000000"
 preserveAspectRatio="xMidYMid meet">
<metadata>
Created by potrace 1.15, written by Peter Selinger 2001-2017
</metadata>
<g transform="translate(0.000000,73.000000) scale(0.100000,-0.100000)"
fill="#000000" stroke="none">
<path d="M70 565 l0 -155 190 0 190 0 0 30 0 30 -160 0 -160 0 0 95 0 95 245
0 245 0 0 30 0 30 -275 0 -275 0 0 -155z"/>
<path d="M70 175 l0 -165 275 0 275 0 0 30 0 30 -245 0 -245 0 0 105 0 105
160 0 160 0 0 30 0 30 -190 0 -190 0 0 -165z"/>
</g>
</svg>
