<?xml version="1.0" standalone="no"?>
<!DOCTYPE svg PUBLIC "-//W3C//DTD SVG 20010904//EN"
 "http://www.w3.org/TR/2001/REC-SVG-20010904/DTD/svg10.dtd">
<svg version="1.0" xmlns="http://www.w3.org/2000/svg"
 width="500.000000pt" height="500.000000pt" viewBox="0 0 500.000000 500.000000"
 preserveAspectRatio="xMidYMid meet">
<metadata>
Created by potrace 1.13, written by Peter Selinger 2001-2015
</metadata>
<g transform="translate(0.000000,500.000000) scale(0.100000,-0.100000)"
fill="#000000" stroke="none">
<path d="M0 2500 l0 -2500 2500 0 2500 0 0 2500 0 2500 -2500 0 -2500 0 0
-2500z m2715 1925 c458 -81 861 -346 1111 -730 405 -623 353 -1417 -129 -1991
-232 -277 -564 -472 -936 -551 -112 -24 -148 -27 -326 -27 -168 0 -218 3 -313
22 -162 33 -278 73 -437 152 -395 196 -704 555 -838 975 -62 194 -72 263 -72
515 0 248 13 331 76 522 132 397 438 756 808 946 180 93 389 159 581 182 105
12 367 4 475 -15z m-650 -3783 c-2 -2 3 -11 11 -19 8 -8 12 -18 9 -23 -3 -4 2
-13 10 -20 22 -18 18 -53 -8 -83 -26 -31 -53 -34 -84 -9 -27 22 -42 82 -19 82
10 0 13 6 10 15 -9 24 4 49 19 37 9 -8 12 -2 14 25 2 46 25 63 35 26 4 -15 5
-29 3 -31z m-355 -187 c6 -172 21 -163 23 13 l2 127 37 3 c46 4 51 -11 46
-121 l-3 -75 45 2 c45 1 130 -29 130 -46 0 -4 -4 -8 -10 -8 -6 0 -10 -42 -10
-105 l0 -105 -41 0 -40 0 2 113 1 112 -23 -3 c-50 -8 -52 -13 -50 -121 l2
-101 -47 0 -46 0 4 61 c4 53 3 59 -9 43 -7 -10 -13 -37 -13 -61 l0 -44 -57 0
c-32 0 -73 0 -92 0 -85 0 -149 145 -107 244 29 68 99 101 159 73 15 -7 17 -1
17 69 l0 76 38 -3 37 -3 5 -140z m368 -167 l-3 -153 -35 0 -35 0 -3 153 -3
152 41 0 41 0 -3 -152z"/>
<path d="M2595 3770 c-4 -6 -4 -14 -1 -17 3 -4 6 -1 6 5 0 7 10 11 23 10 21
-2 22 -5 23 -112 0 -61 -2 -97 -6 -81 -3 17 -5 40 -3 53 2 12 0 22 -4 22 -5 0
-8 -57 -8 -128 l1 -127 -40 -75 c-22 -41 -35 -71 -30 -67 5 5 22 34 39 65 16
31 37 57 45 57 10 0 41 -73 99 -233 l84 -233 51 54 c28 30 70 67 93 81 l41 27
-142 352 -142 352 -61 3 c-37 2 -64 -1 -68 -8z"/>
<path d="M2377 3374 c-4 -4 -7 -25 -7 -46 0 -25 -5 -41 -15 -44 -23 -9 -18
-40 10 -61 18 -13 22 -22 16 -32 -8 -12 -12 -12 -25 -2 -32 26 -59 -25 -40
-74 4 -9 17 -21 30 -26 32 -12 31 -39 -1 -39 -18 0 -26 7 -31 27 -7 25 -8 25
-20 8 -22 -29 -17 -85 8 -112 19 -20 20 -26 8 -33 -14 -9 -49 4 -62 23 -3 6 1
25 10 44 15 31 15 35 -2 51 -17 16 -18 16 -11 -5 5 -17 2 -23 -9 -23 -18 0
-21 31 -6 46 7 7 7 24 1 50 l-9 39 -7 -32 c-4 -18 -12 -30 -17 -27 -16 10 -48
-28 -48 -57 0 -22 6 -30 25 -35 15 -4 25 -13 25 -24 0 -23 -27 -33 -38 -14 -8
14 -10 14 -21 0 -7 -8 -15 -33 -18 -54 -5 -34 -2 -41 23 -60 16 -12 35 -27 42
-33 21 -18 102 -20 102 -2 0 27 47 63 83 63 36 0 82 -29 91 -58 4 -12 17 -17
47 -18 33 0 47 -6 65 -28 13 -15 24 -34 24 -43 0 -8 11 -24 24 -34 14 -11 28
-33 31 -50 4 -18 10 -27 14 -21 8 14 51 11 51 -3 0 -5 5 -3 10 5 10 16 29 20
45 9 10 -7 48 -12 73 -10 6 1 12 6 12 12 0 8 -6 7 -17 -2 -16 -13 -17 -12 -4
3 16 22 31 14 31 -16 0 -32 -19 -46 -61 -46 -36 0 -37 -2 -35 -31 1 -17 9 -35
17 -40 9 -6 10 -9 2 -9 -17 0 -34 -35 -27 -54 7 -18 34 -10 34 10 0 8 7 14 15
14 10 0 15 -10 15 -27 0 -22 2 -25 10 -13 21 31 31 89 20 110 -9 17 -7 26 9
47 27 33 26 46 -3 79 -23 27 -24 27 -30 7 -8 -25 -35 -38 -50 -23 -7 7 -1 19
18 39 39 41 34 85 -11 89 -44 4 -58 24 -33 47 27 24 25 41 -5 61 -15 10 -25
26 -25 40 0 35 -16 29 -25 -8 -9 -38 -9 -37 0 -60 5 -12 2 -18 -8 -18 -8 0
-17 6 -20 13 -3 8 -7 6 -12 -6 -4 -10 -1 -27 9 -42 20 -30 20 -41 1 -49 -23
-8 -65 11 -65 30 0 9 16 34 35 56 27 30 34 44 29 61 -13 45 -46 63 -58 32 -3
-8 -12 -12 -21 -9 -23 9 -18 21 15 33 26 8 30 15 30 45 0 23 -8 45 -25 63 -13
15 -25 22 -25 16 0 -23 -20 -14 -20 10 0 34 -11 67 -22 67 -5 0 -7 -13 -3 -30
6 -29 -8 -43 -18 -17 -3 6 -6 1 -6 -12 -1 -14 9 -35 21 -48 19 -20 20 -26 8
-33 -17 -11 -30 -4 -30 17 0 11 -3 13 -13 5 -10 -9 -13 -2 -14 30 -2 39 -23
82 -23 46 0 -23 -18 -32 -35 -18 -17 14 -20 50 -5 50 5 0 14 9 20 21 14 26
-11 69 -40 69 -11 0 -20 5 -20 10 0 6 5 10 10 10 7 0 8 14 4 38 -10 52 -19 74
-27 66z"/>
<path d="M3335 3165 c-38 -7 -54 -13 -34 -12 23 2 36 -2 36 -10 0 -7 -5 -9
-10 -6 -6 4 -3 -4 5 -16 12 -17 14 -31 8 -52 -6 -20 -5 -29 3 -29 7 0 6 -4 -3
-10 -13 -9 -13 -10 0 -10 13 0 13 -1 0 -10 -13 -9 -13 -10 0 -11 8 0 3 -6 -11
-12 -22 -10 -4 -12 105 -13 76 0 143 -6 160 -13 16 -6 30 -10 31 -9 2 2 5 49
7 105 l4 101 -27 6 c-68 13 -208 14 -274 1z"/>
<path d="M2077 2992 c-5 -7 -6 -25 -2 -40 4 -22 1 -29 -17 -37 -28 -12 -35
-51 -14 -74 9 -10 13 -21 9 -24 -11 -12 -23 -8 -23 8 0 22 -17 18 -34 -7 -20
-28 -20 -62 -1 -78 21 -17 19 -37 -5 -45 -25 -8 -48 9 -52 38 -3 22 -3 22 -20
-3 -26 -39 -31 -72 -14 -95 14 -19 15 -17 10 20 -4 28 -3 36 4 26 11 -16 46
-25 36 -10 -3 5 -1 9 5 9 5 0 12 -6 14 -12 4 -10 6 -10 6 0 1 6 10 12 22 12
13 0 18 -4 13 -12 -5 -10 -4 -10 6 -1 8 7 20 9 35 3 13 -5 26 -6 29 -3 3 4 6
-2 6 -13 1 -23 30 32 47 88 10 34 9 38 -8 43 -16 5 -18 13 -13 40 3 18 1 42
-5 52 -6 10 -11 12 -11 6 0 -7 -4 -13 -10 -13 -14 0 -13 27 1 32 9 3 9 18 3
53 -6 32 -12 45 -17 37z"/>
<path d="M2465 2690 c-4 -6 -11 -8 -16 -4 -5 3 -8 0 -7 -7 2 -6 -3 -14 -11
-17 -10 -3 -11 0 -5 9 7 12 5 12 -9 0 -14 -11 -17 -11 -17 0 0 11 -2 11 -10
-1 -8 -12 -10 -12 -10 -1 0 11 -3 11 -17 0 -9 -8 -14 -9 -10 -3 4 8 -4 13 -24
16 l-31 5 5 -44 c5 -43 4 -44 -20 -38 -19 4 -23 3 -17 -7 5 -8 1 -8 -11 2 -15
12 -17 12 -10 1 6 -11 4 -13 -8 -8 -9 3 -19 2 -23 -4 -4 -7 -10 -6 -19 1 -9 8
-15 8 -20 0 -3 -6 -11 -8 -16 -5 -5 4 -9 1 -9 -6 0 -9 -4 -9 -15 1 -23 19 -5
-31 54 -149 29 -57 50 -109 47 -117 -3 -8 1 -14 9 -14 24 0 28 -38 6 -69 -12
-16 -21 -31 -21 -33 0 -2 55 -3 123 -3 67 1 128 -3 135 -8 21 -17 13 10 -13
41 -30 36 -31 42 -4 76 l21 26 26 -19 c38 -27 115 -18 137 15 14 22 14 25 -2
31 -9 4 -38 7 -65 7 -26 1 -48 2 -48 4 0 2 7 16 15 32 9 17 20 42 25 57 l10
28 -21 -25 c-11 -14 -18 -19 -14 -12 5 11 -19 18 -47 13 -5 0 -8 3 -8 8 0 5
-9 11 -20 14 -12 3 -17 1 -14 -5 3 -5 -3 -4 -15 4 -12 7 -21 16 -21 21 0 4 3
6 8 3 4 -2 6 12 4 33 -2 21 2 57 9 82 7 24 13 46 13 49 1 3 5 11 9 18 5 6 6
12 3 12 -3 0 -8 -5 -11 -10z"/>
<path d="M2012 2544 c4 -5 9 -40 13 -77 6 -68 6 -69 -17 -62 -24 8 -27 8 -45
6 -12 -1 -12 -25 0 -37 4 -4 7 -18 7 -30 0 -14 8 -25 20 -29 28 -9 25 -19 -10
-32 -32 -12 -52 -44 -32 -51 7 -2 12 -15 12 -28 0 -14 5 -34 10 -44 8 -16 6
-21 -12 -31 -13 -6 -38 -25 -57 -43 -32 -29 -33 -29 -19 -5 9 14 19 43 22 65
4 21 9 47 12 57 3 10 -1 19 -10 23 -12 5 -11 11 7 42 12 20 26 40 31 44 16 11
1 20 -46 29 -51 9 -115 -16 -148 -59 -17 -21 -23 -23 -33 -12 -8 8 -8 11 -1 7
11 -7 24 11 30 42 2 10 0 11 -9 2 -21 -21 -27 -11 -12 20 9 17 15 33 13 35 -2
2 -12 -12 -22 -30 -35 -65 -130 -97 -230 -76 -105 22 -230 131 -254 222 l-7
29 -82 -62 -82 -63 15 -35 c40 -97 122 -173 259 -242 105 -52 188 -67 282 -50
39 7 82 18 96 26 15 8 27 10 27 4 0 -5 -6 -9 -12 -9 -29 -1 53 -58 91 -65 33
-5 40 -10 31 -20 -14 -17 22 -53 60 -61 14 -3 38 -10 53 -14 33 -11 33 -12 53
105 8 42 20 52 42 32 10 -9 21 -17 23 -17 8 0 4 234 -3 246 -5 8 8 12 45 13
102 2 101 1 69 34 -15 16 -41 35 -58 43 -22 9 -33 22 -37 43 -4 20 -17 35 -37
46 -21 11 -30 23 -30 40 0 13 -5 27 -12 31 -6 4 -9 3 -6 -2z"/>
<path d="M2732 2410 c-16 -10 -33 -24 -37 -31 -5 -8 -4 -10 3 -5 7 4 12 3 12
-3 0 -5 16 -15 35 -22 26 -10 38 -23 51 -53 9 -23 21 -44 27 -48 7 -4 -2 -8
-19 -8 -18 0 -38 8 -49 20 -22 24 -78 43 -104 35 -13 -4 -18 -14 -16 -35 1
-17 -1 -33 -6 -36 -5 -3 -6 -11 -2 -17 11 -17 11 -77 1 -83 -5 -3 -5 -11 1
-17 16 -20 16 -23 2 -40 -17 -22 -7 -21 30 0 15 9 30 15 33 12 6 -6 15 -78 16
-126 0 -47 11 -53 73 -42 39 7 84 38 69 48 -5 3 -12 21 -15 39 -6 29 -4 32 17
32 27 0 82 40 68 49 -5 3 -12 20 -15 36 -5 27 -2 32 24 44 17 7 37 24 46 37
13 21 14 27 2 37 -8 7 -27 26 -42 43 -25 28 -27 35 -17 54 12 22 6 72 -8 68
-4 -1 -23 3 -42 9 -67 21 -106 22 -138 3z"/>
<path d="M3540 2155 c-30 -7 -86 -14 -125 -15 -70 -2 -73 -3 -24 -14 21 -5 25
-11 24 -38 0 -18 -4 -38 -8 -45 -4 -6 -2 -15 4 -19 8 -5 9 -3 4 6 -5 8 -4 11
1 7 5 -3 8 -24 6 -46 -4 -36 -7 -40 -35 -45 -18 -2 12 -2 65 0 54 3 117 11
140 17 l42 12 -3 65 c-3 88 -11 130 -25 129 -6 -1 -36 -7 -66 -14z"/>
<path d="M2073 2000 c-23 -17 -47 -44 -55 -60 -7 -16 -19 -31 -27 -32 -18 -4
34 -68 54 -68 8 0 17 -4 20 -10 4 -7 -3 -7 -20 0 -36 14 -35 14 -35 -23 0 -18
-5 -38 -11 -44 -8 -8 -7 -13 2 -18 8 -6 10 -4 4 5 -6 9 -4 11 5 5 10 -6 10
-10 -2 -19 -12 -9 -13 -14 -3 -23 15 -13 8 -63 -9 -63 -6 0 -4 -5 4 -10 10 -6
11 -10 3 -10 -7 0 -13 -4 -13 -9 0 -10 83 2 125 19 16 6 44 22 62 36 18 14 51
31 74 40 23 8 48 19 54 24 7 6 23 9 36 9 13 -1 31 1 40 5 9 4 21 1 28 -8 7 -8
29 -20 49 -27 20 -7 50 -23 66 -36 56 -47 160 -83 170 -59 3 7 5 7 5 -1 1 -7
6 -13 13 -13 6 0 1 11 -11 24 -13 14 -18 26 -12 30 10 7 8 37 -5 58 -4 6 -3 8
3 5 6 -4 13 2 16 14 4 16 3 18 -7 9 -11 -8 -12 -2 -6 32 5 24 6 45 4 47 -2 2
-4 0 -4 -5 0 -5 -10 -10 -22 -11 -18 -2 -17 1 9 17 37 22 51 42 35 48 -7 2
-12 10 -12 18 0 26 -38 91 -66 113 -24 19 -28 19 -55 6 -15 -8 -27 -21 -24
-28 8 -25 14 -167 7 -167 -4 0 -22 9 -39 20 -24 14 -33 27 -33 47 0 52 -10 56
-123 58 -58 2 -110 5 -115 9 -15 9 -26 -12 -32 -64 -4 -37 -9 -46 -32 -54 -15
-5 -30 -7 -33 -4 -7 7 14 125 26 149 6 12 0 20 -27 32 -19 10 -36 17 -37 17
-2 0 -22 -14 -44 -30z"/>
<path d="M2196 1615 c4 -11 17 -34 30 -51 69 -93 210 -79 264 26 11 22 20 41
20 42 0 7 -207 1 -219 -7 -9 -5 -12 -4 -8 1 3 6 -15 10 -44 9 -44 0 -48 -2
-43 -20z"/>
<path d="M1640 508 l0 -77 -36 15 c-112 47 -194 -92 -133 -222 31 -64 49 -73
147 -72 l82 0 0 37 c0 35 22 81 40 81 4 0 7 -27 6 -60 l-3 -60 31 0 31 0 -3
93 c-4 104 4 119 65 132 28 6 33 4 38 -18 4 -13 5 -65 3 -116 l-3 -91 27 0 27
0 3 110 c3 106 2 109 -20 120 -13 5 -50 10 -82 10 l-60 0 0 98 0 99 -28 -5
-28 -4 1 -119 c1 -112 -1 -121 -22 -141 -13 -12 -26 -18 -30 -15 -3 4 -2 7 3
7 5 0 7 57 4 137 l-5 136 -27 1 -28 2 0 -78z m-45 -174 c0 -45 2 -49 23 -46
19 3 22 -1 22 -32 0 -65 -70 -84 -118 -33 -47 52 -41 150 11 175 38 18 62 -7
62 -64z"/>
<path d="M1516 368 c-22 -31 -20 -86 4 -126 19 -30 24 -33 63 -30 40 3 42 5
45 37 2 20 -1 31 -6 27 -6 -3 -17 -3 -26 0 -13 5 -16 18 -14 58 3 49 2 51 -24
54 -18 2 -31 -4 -42 -20z"/>
<path d="M2010 291 l0 -141 30 0 31 0 -3 138 -3 137 -27 3 -28 3 0 -140z"/>
</g>
</svg>
